PathFileType	4	(X/Y/Z)	c:/Users/goper/Files/vsCode/490R/osim_files/C10/C10_Fast_03.trc
DataRate	CameraRate	NumFrames	NumMarkers	Units                	OrigDataRate	OrigDataStartFrame	OrigNumFrames
250.00	250.00	4	36	mm	250.0	680	2716
                Frame#	Time	LPSIS			LASIS			LTH1			LTH2			LTH3			LTH4			LLFE			LMFE			LSH1			LSH2			LSH3			LSH4			LLMAL			LMMAL			LCAL			LMTP5			LTOE			LMTP1			RPSIS			RASIS			RTH1			RTH2			RTH3			RTH4			RLFE			RMFE			RSH1			RSH2			RSH3			RSH4			RLMAL			RMMAL			RCAL			RMTP1			RTOE			RMTP5		
		X1	Y1	Z1	X2	Y2	Z2	X3	Y3	Z3	X4	Y4	Z4	X5	Y5	Z5	X6	Y6	Z6	X7	Y7	Z7	X8	Y8	Z8	X9	Y9	Z9	X10	Y10	Z10	X11	Y11	Z11	X12	Y12	Z12	X13	Y13	Z13	X14	Y14	Z14	X15	Y15	Z15	X16	Y16	Z16	X17	Y17	Z17	X18	Y18	Z18	X19	Y19	Z19	X20	Y20	Z20	X21	Y21	Z21	X22	Y22	Z22	X23	Y23	Z23	X24	Y24	Z24	X25	Y25	Z25	X26	Y26	Z26	X27	Y27	Z27	X28	Y28	Z28	X29	Y29	Z29	X30	Y30	Z30	X31	Y31	Z31	X32	Y32	Z32	X33	Y33	Z33	X34	Y34	Z34	X35	Y35	Z35	X36	Y36	Z36

680	2.71600	1123.23792	977.41431	316.39297	952.09528	970.64856	432.87857	887.03308	766.38654	449.73355	873.10840	721.59369	442.84042	936.26984	742.25421	473.52286	913.19934	700.82410	466.39130	796.37988	497.32529	366.18726	816.42413	494.37173	258.02341	848.04584	406.50931	384.46463	0.00000	0.00000	0.00000	841.59802	396.80627	377.41611	776.48822	405.53745	361.25818	778.50159	86.66785	329.29980	0.00000	0.00000	0.00000	843.83484	39.68661	289.23288	667.48840	30.82661	338.11444	620.23474	59.82967	273.87000	0.00000	0.00000	0.00000	1120.76074	983.72949	232.98708	968.98926	953.59253	99.17292	1114.37073	680.06519	71.29935	1112.53711	724.58972	72.22456	856.95459	738.24896	193.80214	1055.07935	718.03564	55.49790	1154.61450	461.45190	113.15105	1129.35278	435.39240	221.04251	1269.78796	436.07309	120.00146	1295.70251	401.32779	119.96768	1223.59436	392.00949	113.95918	1256.32483	367.28244	112.63406	0.00000	0.00000	0.00000	773.91772	354.87445	352.83548	0.00000	0.00000	0.00000	0.00000	0.00000	0.00000	1383.48877	42.66654	225.57303	1430.73181	45.37332	160.20471
681	2.72000	1116.72058	978.02936	315.49374	945.81519	972.46637	432.68561	880.75507	767.55701	450.02963	866.78864	722.78259	443.09692	930.23407	742.99890	474.12521	906.92798	701.97479	466.68216	790.17694	496.97064	365.76010	809.96027	493.79642	258.65900	843.24738	406.68976	385.03900	0.00000	0.00000	0.00000	837.80652	396.84116	377.43628	771.91406	405.09085	361.35950	777.44476	86.09629	329.39246	0.00000	0.00000	0.00000	843.61859	39.89274	289.27579	667.00348	29.92897	338.40396	619.48999	58.09346	273.90915	0.00000	0.00000	0.00000	1114.93140	983.86603	231.67340	961.89612	953.58154	99.80740	1104.99524	678.42963	71.45646	1103.78003	722.96289	72.34314	850.66901	738.55029	193.70360	1046.20703	717.18353	55.84637	1142.68396	459.57162	112.39559	1116.99048	432.87033	219.82706	1258.12427	436.03641	119.32542	1284.96802	402.49652	118.64047	1212.18396	390.15210	112.99232	1245.78638	367.27469	111.71148	0.00000	0.00000	0.00000	769.84314	354.63492	353.13544	0.00000	0.00000	0.00000	0.00000	0.00000	0.00000	0.00000	0.00000	0.00000	1428.63391	47.96054	160.07831
682	2.72400	1110.32739	978.65137	314.60065	939.69708	974.00677	432.62195	875.11310	768.46484	451.08267	861.33026	723.40906	443.83664	923.97327	743.47083	474.66754	900.67249	702.48938	467.15854	784.94794	496.70325	365.64127	803.82233	492.88116	259.10199	838.69983	406.62698	385.40662	0.00000	0.00000	0.00000	834.08380	396.88071	377.46136	767.70752	404.51260	361.46313	776.79364	85.90383	329.33313	0.00000	0.00000	0.00000	843.45520	39.95171	289.27444	666.81293	29.75039	338.38943	619.08112	57.06588	273.66034	0.00000	0.00000	0.00000	1108.23389	983.68829	230.73779	954.81946	953.68762	100.43321	1095.62463	676.76758	71.57896	1095.03809	721.32538	72.39416	844.40869	738.85388	193.56267	1039.31750	717.30829	55.63984	1130.56641	457.58710	111.69833	1104.39954	430.33127	218.72527	1246.13123	435.96121	118.61873	1273.42102	402.29984	118.54323	1201.56628	390.16501	112.09700	1234.84363	367.16626	110.95467	0.00000	0.00000	0.00000	765.95203	354.12515	353.39203	0.00000	0.00000	0.00000	0.00000	0.00000	0.00000	1379.61987	45.48999	223.98859	1426.22327	50.92773	159.91522
683	2.72800	1103.93237	979.21167	313.80933	933.64642	975.50635	432.61996	869.07227	769.28979	451.76239	854.55652	724.64844	444.23447	919.09088	743.36493	476.17795	894.32587	703.15735	467.55618	780.37500	496.19708	365.66934	798.49432	491.89688	259.06946	834.65289	406.62140	385.89441	0.00000	0.00000	0.00000	830.42889	396.92468	377.49109	763.75848	403.84851	361.56470	776.64532	86.07194	329.15045	0.00000	0.00000	0.00000	843.36823	39.98207	289.29599	666.72754	29.87910	338.18869	619.02081	56.50287	273.09732	659.12878	29.01932	228.36018	1101.60315	983.52295	229.80894	947.93835	953.86108	101.12761	1086.10852	674.85742	71.64323	1086.23987	719.59204	72.42750	838.17395	739.15948	193.37901	0.00000	0.00000	0.00000	1118.20776	455.57608	111.09953	1098.08008	426.42987	218.61429	1233.86877	435.80295	117.91813	1261.83105	403.08820	117.51029	1189.65283	388.32635	111.29446	1224.28687	365.48233	110.82626	0.00000	0.00000	0.00000	762.54065	353.55798	353.61615	0.00000	0.00000	0.00000	0.00000	0.00000	0.00000	1377.13452	46.48564	223.80849	1423.30310	54.15016	159.55064
